<mxfile host="app.diagrams.net" agent="Mozilla/5.0 (Windows NT 10.0; Win64; x64) AppleWebKit/537.36 (KHTML, like Gecko) Chrome/129.0.0.0 Safari/537.36" version="24.7.17">
  <diagram name="Page-1" id="9dVjfnbzK9_CJwh_2DJr">
    <mxGraphModel dx="792" dy="1187" grid="0" gridSize="10" guides="1" tooltips="1" connect="1" arrows="1" fold="1" page="0" pageScale="1" pageWidth="850" pageHeight="1100" math="0" shadow="0">
      <root>
        <mxCell id="0" />
        <mxCell id="1" parent="0" />
        <mxCell id="H-Z_8vQ-qXtFZEkuKyDg-2" value="IDLE&lt;div&gt;-Waiting for the next timer event&lt;/div&gt;" style="rounded=0;whiteSpace=wrap;html=1;" vertex="1" parent="1">
          <mxGeometry x="42" y="-39" width="329" height="60" as="geometry" />
        </mxCell>
        <mxCell id="H-Z_8vQ-qXtFZEkuKyDg-3" value="Check Button" style="whiteSpace=wrap;html=1;aspect=fixed;" vertex="1" parent="1">
          <mxGeometry x="42" y="112" width="80" height="80" as="geometry" />
        </mxCell>
        <mxCell id="H-Z_8vQ-qXtFZEkuKyDg-4" value="Check Temperature" style="whiteSpace=wrap;html=1;aspect=fixed;" vertex="1" parent="1">
          <mxGeometry x="162" y="112" width="80" height="80" as="geometry" />
        </mxCell>
        <mxCell id="H-Z_8vQ-qXtFZEkuKyDg-5" value="Control Heater&lt;div&gt;&amp;amp; UART Update&lt;/div&gt;" style="whiteSpace=wrap;html=1;aspect=fixed;" vertex="1" parent="1">
          <mxGeometry x="291" y="112" width="93" height="93" as="geometry" />
        </mxCell>
        <mxCell id="H-Z_8vQ-qXtFZEkuKyDg-6" value="Return to IDLE" style="rounded=0;whiteSpace=wrap;html=1;" vertex="1" parent="1">
          <mxGeometry x="42" y="277" width="336" height="60" as="geometry" />
        </mxCell>
        <mxCell id="H-Z_8vQ-qXtFZEkuKyDg-7" value="" style="endArrow=classic;html=1;rounded=0;fontSize=12;startSize=8;endSize=8;curved=1;entryX=0.5;entryY=0;entryDx=0;entryDy=0;exitX=0.125;exitY=1.017;exitDx=0;exitDy=0;exitPerimeter=0;" edge="1" parent="1" source="H-Z_8vQ-qXtFZEkuKyDg-2" target="H-Z_8vQ-qXtFZEkuKyDg-3">
          <mxGeometry width="50" height="50" relative="1" as="geometry">
            <mxPoint x="57" y="92" as="sourcePoint" />
            <mxPoint x="107" y="42" as="targetPoint" />
          </mxGeometry>
        </mxCell>
        <mxCell id="H-Z_8vQ-qXtFZEkuKyDg-8" value="" style="endArrow=classic;html=1;rounded=0;fontSize=12;startSize=8;endSize=8;curved=1;entryX=0.5;entryY=0;entryDx=0;entryDy=0;exitX=0.125;exitY=1.017;exitDx=0;exitDy=0;exitPerimeter=0;" edge="1" parent="1">
          <mxGeometry width="50" height="50" relative="1" as="geometry">
            <mxPoint x="200" y="22" as="sourcePoint" />
            <mxPoint x="199" y="112" as="targetPoint" />
          </mxGeometry>
        </mxCell>
        <mxCell id="H-Z_8vQ-qXtFZEkuKyDg-9" value="" style="endArrow=classic;html=1;rounded=0;fontSize=12;startSize=8;endSize=8;curved=1;entryX=0.5;entryY=0;entryDx=0;entryDy=0;exitX=0.125;exitY=1.017;exitDx=0;exitDy=0;exitPerimeter=0;" edge="1" parent="1">
          <mxGeometry width="50" height="50" relative="1" as="geometry">
            <mxPoint x="338" y="21" as="sourcePoint" />
            <mxPoint x="337" y="111" as="targetPoint" />
          </mxGeometry>
        </mxCell>
        <mxCell id="H-Z_8vQ-qXtFZEkuKyDg-18" value="" style="endArrow=classic;html=1;rounded=0;fontSize=12;startSize=8;endSize=8;curved=1;exitX=0.125;exitY=1.017;exitDx=0;exitDy=0;exitPerimeter=0;" edge="1" parent="1">
          <mxGeometry width="50" height="50" relative="1" as="geometry">
            <mxPoint x="87" y="192" as="sourcePoint" />
            <mxPoint x="86" y="274" as="targetPoint" />
          </mxGeometry>
        </mxCell>
        <mxCell id="H-Z_8vQ-qXtFZEkuKyDg-19" value="" style="endArrow=classic;html=1;rounded=0;fontSize=12;startSize=8;endSize=8;curved=1;exitX=0.125;exitY=1.017;exitDx=0;exitDy=0;exitPerimeter=0;" edge="1" parent="1">
          <mxGeometry width="50" height="50" relative="1" as="geometry">
            <mxPoint x="202.5" y="192" as="sourcePoint" />
            <mxPoint x="201.5" y="274" as="targetPoint" />
          </mxGeometry>
        </mxCell>
        <mxCell id="H-Z_8vQ-qXtFZEkuKyDg-20" value="" style="endArrow=classic;html=1;rounded=0;fontSize=12;startSize=8;endSize=8;curved=1;exitX=0.125;exitY=1.017;exitDx=0;exitDy=0;exitPerimeter=0;" edge="1" parent="1">
          <mxGeometry width="50" height="50" relative="1" as="geometry">
            <mxPoint x="340" y="205" as="sourcePoint" />
            <mxPoint x="339" y="277" as="targetPoint" />
          </mxGeometry>
        </mxCell>
      </root>
    </mxGraphModel>
  </diagram>
</mxfile>
